<?xml version="1.0" encoding="UTF-8"?>
<level>
  <owner>Fistachka</owner>
  <repo>september4</repo>
  <version>v1.0.11</version>
  <next number="1" owner="Fistachka" repo="zabava"/>
  <readme>
    <ru>75ac91641a31333629f92718ca18b0616d7bfe1eec4c2251f244f410531637c9</ru>
    <en>4e8a96cea7fc5be851405d2930a1eaa7181f4d181ec931e8f13743d269f332a9</en>
  </readme>
  <license>b1b99f5538d1fd3702219bff50c665196dfa42f6ee755c37fe41a6178d6bc6e5</license>
  <exercise number="1">
    <scale>minor</scale>
    <bpm>68</bpm>
    <lowestNote>85</lowestNote>
    <tonalities>6</tonalities>
    <video name="35t.mp4" size="1036339" type="video/mp4" volume="0.5">af5f796ec45280a3b87abadbacc2d30c710b58bc6fdb3c501798e373193f024f</video>
    <notes>
      <note number="1" values="85" ticks="151" durationTicks="27" ppq="96" velocity="0.843"/>
      <note number="2" values="3" ticks="176" durationTicks="22" ppq="96" velocity="0.913"/>
      <note number="3" values="2" ticks="200" durationTicks="24" ppq="96" velocity="0.834"/>
      <note number="4" values="3" ticks="224" durationTicks="96" ppq="96" velocity="0.864"/>
      <note number="5" values="2" ticks="334" durationTicks="25" ppq="96" velocity="0.913"/>
      <note number="6" values="3" ticks="359" durationTicks="25" ppq="96" velocity="0.839"/>
      <note number="7" values="2" ticks="383" durationTicks="24" ppq="96" velocity="0.839"/>
      <note number="8" values="3" ticks="409" durationTicks="62" ppq="96" velocity="0.839"/>
    </notes>
  </exercise>
  <exercise number="2">
    <scale>minor</scale>
    <bpm>68</bpm>
    <lowestNote>85</lowestNote>
    <tonalities>6</tonalities>
    <video name="36t.mp4" size="1062357" type="video/mp4" volume="0.5">03d40fa0a954a6714af6d9d7e61b3ee151eb7158837aede74b2a65bbb8c38b64</video>
    <notes>
      <note number="1" values="3" ticks="39" durationTicks="27" ppq="96" velocity="0.843"/>
      <note number="2" values="2" ticks="66" durationTicks="22" ppq="96" velocity="0.906"/>
      <note number="3" values="3" ticks="89" durationTicks="24" ppq="96" velocity="0.827"/>
      <note number="4" values="4" ticks="120" durationTicks="48" ppq="96" velocity="0.858"/>
      <note number="5" values="3" ticks="171" durationTicks="60" ppq="96" velocity="0.906"/>
      <note number="6" values="2" ticks="233" durationTicks="25" ppq="96" velocity="0.835"/>
      <note number="7" values="1" ticks="258" durationTicks="28" ppq="96" velocity="0.835"/>
      <note number="8" values="87" ticks="288" durationTicks="126" ppq="96" velocity="0.835"/>
    </notes>
  </exercise>
  <exercise number="3">
    <scale>minor</scale>
    <bpm>68</bpm>
    <lowestNote>85</lowestNote>
    <tonalities>6</tonalities>
    <video name="37t.mp4" size="1049053" type="video/mp4" volume="0.5">9e2d965006b1ad241cf40a96436f2a01e056f45a66e164c7ff6c1748607c2a47</video>
    <notes>
      <note number="1" values="85" ticks="51" durationTicks="27" ppq="96" velocity="0.843"/>
      <note number="2" values="3" ticks="76" durationTicks="22" ppq="96" velocity="0.906"/>
      <note number="3" values="2" ticks="100" durationTicks="24" ppq="96" velocity="0.827"/>
      <note number="4" values="3" ticks="126" durationTicks="59" ppq="96" velocity="0.858"/>
      <note number="5" values="2" ticks="235" durationTicks="19" ppq="96" velocity="0.906"/>
      <note number="6" values="3" ticks="254" durationTicks="46" ppq="96" velocity="0.835"/>
      <note number="7" values="2" ticks="305" durationTicks="24" ppq="96" velocity="0.835"/>
      <note number="8" values="3" ticks="331" durationTicks="62" ppq="96" velocity="0.835"/>
    </notes>
  </exercise>
  <exercise number="4">
    <scale>minor</scale>
    <bpm>68</bpm>
    <lowestNote>86</lowestNote>
    <tonalities>6</tonalities>
    <video name="38t.mp4" size="802242" type="video/mp4" volume="0.5">79c96f268d634fb0a4086f598ea6df0276a95db944da83e87f2654dfc875aa1d</video>
    <notes>
      <note number="1" values="3" ticks="45" durationTicks="27" ppq="96" velocity="0.843"/>
      <note number="2" values="2" ticks="70" durationTicks="22" ppq="96" velocity="0.906"/>
      <note number="3" values="3" ticks="94" durationTicks="33" ppq="96" velocity="0.827"/>
      <note number="4" values="4" ticks="127" durationTicks="43" ppq="96" velocity="0.85"/>
      <note number="5" values="3" ticks="171" durationTicks="62" ppq="96" velocity="0.906"/>
      <note number="6" values="2" ticks="236" durationTicks="25" ppq="96" velocity="0.835"/>
      <note number="7" values="6" ticks="264" durationTicks="24" ppq="96" velocity="0.835"/>
      <note number="8" values="5" ticks="290" durationTicks="126" ppq="96" velocity="0.835"/>
    </notes>
  </exercise>
  <exercise number="5">
    <scale>minor</scale>
    <bpm>68</bpm>
    <lowestNote>85</lowestNote>
    <tonalities>6</tonalities>
    <video name="39t.mp4" size="682329" type="video/mp4" volume="0.5">6bba5e135bd24c11df1b53b14c7ed70b75518cc203d3c192f77232d3e383fbb7</video>
    <notes>
      <note number="1" values="85" ticks="67" durationTicks="24" ppq="96" velocity="0.889"/>
      <note number="2" values="3" ticks="91" durationTicks="26" ppq="96" velocity="0.795"/>
      <note number="3" values="2" ticks="115" durationTicks="27" ppq="96" velocity="0.827"/>
      <note number="4" values="3" ticks="142" durationTicks="58" ppq="96" velocity="0.864"/>
      <note number="5" values="85" ticks="244" durationTicks="27" ppq="96" velocity="0.795"/>
      <note number="6" values="3" ticks="273" durationTicks="25" ppq="96" velocity="0.857"/>
      <note number="7" values="2" ticks="299" durationTicks="26" ppq="96" velocity="0.857"/>
      <note number="8" values="3" ticks="328" durationTicks="95" ppq="96" velocity="0.857"/>
    </notes>
  </exercise>
  <exercise number="6">
    <scale>minor</scale>
    <bpm>68</bpm>
    <lowestNote>86</lowestNote>
    <tonalities>6</tonalities>
    <video name="40t.mp4" size="798736" type="video/mp4" volume="0.5">03cb68ab71aad62f73a4fd7428f42207963906289c9ef005a40b68752ef1bd20</video>
    <notes>
      <note number="1" values="3" ticks="49" durationTicks="27" ppq="96" velocity="0.843"/>
      <note number="2" values="2" ticks="76" durationTicks="22" ppq="96" velocity="0.906"/>
      <note number="3" values="3" ticks="100" durationTicks="24" ppq="96" velocity="0.827"/>
      <note number="4" values="4" ticks="138" durationTicks="40" ppq="96" velocity="0.858"/>
      <note number="5" values="3" ticks="179" durationTicks="21" ppq="96" velocity="0.906"/>
      <note number="6" values="2" ticks="201" durationTicks="56" ppq="96" velocity="0.835"/>
      <note number="7" values="6" ticks="281" durationTicks="40" ppq="96" velocity="0.835"/>
      <note number="8" values="5" ticks="321" durationTicks="62" ppq="96" velocity="0.835"/>
    </notes>
  </exercise>
  <exercise number="7">
    <scale>minor</scale>
    <bpm>68</bpm>
    <lowestNote>85</lowestNote>
    <tonalities>6</tonalities>
    <video name="41t.mp4" size="685615" type="video/mp4" volume="0.5">f2281f25c7def8937a9a1e9b806952a460e54931397140e10728dc48b8ad75e0</video>
    <notes>
      <note number="1" values="1" ticks="36" durationTicks="16" ppq="96" velocity="0.843"/>
      <note number="2" values="1" ticks="59" durationTicks="22" ppq="96" velocity="0.906"/>
      <note number="3" values="2" ticks="84" durationTicks="24" ppq="96" velocity="0.827"/>
      <note number="4" values="3" ticks="106" durationTicks="35" ppq="96" velocity="0.858"/>
      <note number="5" values="2" ticks="149" durationTicks="25" ppq="96" velocity="0.906"/>
      <note number="6" values="1" ticks="175" durationTicks="55" ppq="96" velocity="0.835"/>
      <note number="7" values="5" ticks="260" durationTicks="32" ppq="96" velocity="0.835"/>
      <note number="8" values="4" ticks="293" durationTicks="62" ppq="96" velocity="0.835"/>
    </notes>
  </exercise>
  <exercise number="8">
    <scale>minor</scale>
    <bpm>68</bpm>
    <lowestNote>85</lowestNote>
    <tonalities>6</tonalities>
    <video name="42t.mp4" size="796094" type="video/mp4" volume="0.5">ee54f6739fd620dc203f0d4c992f8ad687bf2d624e58df799e10182b7b4b1a18</video>
    <notes>
      <note number="1" values="4" ticks="49" durationTicks="41" ppq="96" velocity="0.882"/>
      <note number="2" values="4" ticks="95" durationTicks="15" ppq="96" velocity="0.929"/>
      <note number="3" values="4" ticks="113" durationTicks="30" ppq="96" velocity="0.843"/>
      <note number="4" values="5" ticks="143" durationTicks="47" ppq="96" velocity="0.906"/>
      <note number="5" values="4" ticks="192" durationTicks="24" ppq="96" velocity="0.827"/>
      <note number="6" values="4" ticks="218" durationTicks="58" ppq="96" velocity="0.858"/>
      <note number="7" values="5" ticks="282" durationTicks="95" ppq="96" velocity="0.858"/>
    </notes>
  </exercise>
  <exercise number="9">
    <scale>minor</scale>
    <bpm>68</bpm>
    <lowestNote>85</lowestNote>
    <tonalities>6</tonalities>
    <video name="43t.mp4" size="1261539" type="video/mp4" volume="0.5">625cbf24a70cf9b022db2d177bfd38a899c7d10ded78d0176e4c2fdd6a1d8d2c</video>
    <notes>
      <note number="1" values="85" ticks="35" durationTicks="24" ppq="96" velocity="0.882"/>
      <note number="2" values="3" ticks="59" durationTicks="26" ppq="96" velocity="0.787"/>
      <note number="3" values="2" ticks="83" durationTicks="27" ppq="96" velocity="0.827"/>
      <note number="4" values="3" ticks="110" durationTicks="58" ppq="96" velocity="0.858"/>
      <note number="5" values="3" ticks="241" durationTicks="15" ppq="96" velocity="0.787"/>
      <note number="6" values="3" ticks="265" durationTicks="25" ppq="96" velocity="0.85"/>
      <note number="7" values="2" ticks="287" durationTicks="26" ppq="96" velocity="0.85"/>
      <note number="8" values="3" ticks="312" durationTicks="95" ppq="96" velocity="0.85"/>
    </notes>
  </exercise>
  <exercise number="10">
    <scale>minor</scale>
    <bpm>68</bpm>
    <lowestNote>86</lowestNote>
    <tonalities>6</tonalities>
    <video name="44t.mp4" size="1079882" type="video/mp4" volume="0.5">030cd660df624eb5f76b4da6d8eba1e0bb35e7738ac505c2804631534da3f592</video>
    <notes>
      <note number="1" values="3" ticks="32" durationTicks="27" ppq="96" velocity="0.843"/>
      <note number="2" values="2" ticks="57" durationTicks="22" ppq="96" velocity="0.906"/>
      <note number="3" values="3" ticks="82" durationTicks="24" ppq="96" velocity="0.827"/>
      <note number="4" values="4" ticks="119" durationTicks="28" ppq="96" velocity="0.85"/>
      <note number="5" values="3" ticks="151" durationTicks="25" ppq="96" velocity="0.906"/>
      <note number="6" values="2" ticks="183" durationTicks="46" ppq="96" velocity="0.835"/>
      <note number="7" values="6" ticks="256" durationTicks="33" ppq="96" velocity="0.835"/>
      <note number="8" values="5" ticks="295" durationTicks="62" ppq="96" velocity="0.835"/>
    </notes>
  </exercise>
  <exercise number="11">
    <scale>minor</scale>
    <bpm>68</bpm>
    <lowestNote>85</lowestNote>
    <tonalities>6</tonalities>
    <video name="45t.mp4" size="887244" type="video/mp4" volume="0.5">12f250c8c4db9cff24c54c291506264a0f503d6b2ef21914022a88b51a0f2a13</video>
    <notes>
      <note number="1" values="1" ticks="33" durationTicks="18" ppq="96" velocity="0.843"/>
      <note number="2" values="1" ticks="58" durationTicks="22" ppq="96" velocity="0.906"/>
      <note number="3" values="2" ticks="85" durationTicks="24" ppq="96" velocity="0.827"/>
      <note number="4" values="3" ticks="119" durationTicks="25" ppq="96" velocity="0.85"/>
      <note number="5" values="2" ticks="142" durationTicks="25" ppq="96" velocity="0.906"/>
      <note number="6" values="1" ticks="170" durationTicks="55" ppq="96" velocity="0.835"/>
      <note number="7" values="5" ticks="266" durationTicks="24" ppq="96" velocity="0.835"/>
      <note number="8" values="4" ticks="288" durationTicks="62" ppq="96" velocity="0.835"/>
    </notes>
  </exercise>
  <exercise number="12">
    <scale>minor</scale>
    <bpm>68</bpm>
    <lowestNote>85</lowestNote>
    <tonalities>6</tonalities>
    <video name="46t.mp4" size="916788" type="video/mp4" volume="0.5">8e8f47ee332509cf8be6999d25c5987210e1fef775362f6ed4245b4a5f96d325</video>
    <notes>
      <note number="1" values="4" ticks="131" durationTicks="19" ppq="96" velocity="0.882"/>
      <note number="2" values="4" ticks="157" durationTicks="15" ppq="96" velocity="0.937"/>
      <note number="3" values="4" ticks="182" durationTicks="27" ppq="96" velocity="0.843"/>
      <note number="4" values="5" ticks="208" durationTicks="47" ppq="96" velocity="0.906"/>
      <note number="5" values="4" ticks="257" durationTicks="17" ppq="96" velocity="0.827"/>
      <note number="6" values="4" ticks="280" durationTicks="65" ppq="96" velocity="0.866"/>
      <note number="7" values="3" ticks="347" durationTicks="95" ppq="96" velocity="0.866"/>
    </notes>
  </exercise>
</level>
